<?xml version="1.0" encoding="utf-8"?>
<!-- Generator: Adobe Illustrator 23.0.6, SVG Export Plug-In . SVG Version: 6.00 Build 0)  -->
<svg version="1.1" id="Layer_1" xmlns="http://www.w3.org/2000/svg" xmlns:xlink="http://www.w3.org/1999/xlink" x="0px" y="0px"
	 viewBox="0 0 800 60" style="enable-background:new 0 0 800 60;" xml:space="preserve">
<style type="text/css">
	.st0{fill:#E1E1E1;}
	.st1{fill:#0078D7;}
</style>
<g>
	<path class="st0" d="M25.3,44.7c-2.2,0-4.1-0.3-5.9-0.9c-1.7-0.6-3.3-1.6-4.5-2.8s-2.2-2.7-2.9-4.5c-0.7-1.8-1-3.9-1-6.2
		c0-2.3,0.3-4.4,1-6.2c0.7-1.8,1.7-3.3,2.9-4.5c1.3-1.2,2.8-2.1,4.5-2.8c1.7-0.6,3.7-0.9,5.9-0.9c2.5,0,4.7,0.4,6.7,1.3
		c1.9,0.9,3.5,2.1,4.7,3.6c1.2,1.5,1.9,3.3,2.1,5.4h-7.9c-0.2-0.7-0.6-1.4-1.1-1.9c-0.5-0.6-1.1-1-1.9-1.3c-0.7-0.3-1.6-0.5-2.5-0.5
		c-1.3,0-2.4,0.3-3.3,0.8c-1,0.5-1.7,1.4-2.2,2.5c-0.5,1.1-0.8,2.6-0.8,4.5c0,1.4,0.2,2.6,0.5,3.6c0.3,1,0.7,1.8,1.3,2.4
		c0.6,0.6,1.2,1.1,2,1.4c0.8,0.3,1.6,0.4,2.6,0.4c0.9,0,1.7-0.2,2.5-0.5c0.8-0.3,1.4-0.7,1.9-1.3c0.5-0.6,0.9-1.2,1.1-1.9h7.9
		c-0.2,2.1-0.9,3.9-2.1,5.4c-1.2,1.6-2.8,2.8-4.7,3.6C30,44.3,27.8,44.7,25.3,44.7z"/>
	<path class="st0" d="M41.7,44.4V16.3H49v10.6h0.3c0.5-1.3,1.3-2.2,2.4-2.9c1.1-0.6,2.4-0.9,3.8-0.9c1,0,2,0.2,2.9,0.5
		c0.9,0.3,1.7,0.8,2.3,1.5c0.7,0.7,1.2,1.5,1.6,2.6c0.4,1.1,0.6,2.4,0.6,4v12.8h-7.4V33.1c0-0.9-0.1-1.7-0.3-2.3
		c-0.2-0.6-0.5-1.1-1-1.4c-0.4-0.3-1-0.5-1.8-0.5c-0.8,0-1.4,0.2-1.9,0.5c-0.5,0.4-0.9,0.8-1.1,1.3c-0.3,0.5-0.4,1.1-0.4,1.7v11.9
		H41.7z"/>
	<path class="st0" d="M66.7,44.4v-21h6.7l0.3,3h0.3c0.5-1.3,1.2-2.2,2.1-2.7c1-0.4,2.1-0.7,3.3-0.7c0.2,0,0.4,0,0.6,0
		c0.2,0,0.4,0,0.5,0V30c-0.1,0-0.3,0-0.5,0c-0.2,0-0.5,0-0.8,0c-1.3,0-2.4,0.2-3.1,0.5c-0.7,0.3-1.3,0.8-1.6,1.5
		c-0.3,0.7-0.4,1.5-0.4,2.4v9.9H66.7z"/>
	<path class="st0" d="M92.9,44.7c-1.6,0-3.1-0.2-4.4-0.7c-1.3-0.5-2.4-1.2-3.4-2.1c-1-0.9-1.7-2.1-2.2-3.4s-0.8-2.9-0.8-4.6
		c0-2.2,0.4-4.1,1.3-5.7c0.8-1.6,2.1-2.9,3.7-3.8c1.6-0.9,3.6-1.4,5.8-1.4c1.6,0,3.1,0.2,4.4,0.7s2.4,1.2,3.4,2.1
		c1,0.9,1.7,2.1,2.2,3.4c0.5,1.3,0.8,2.9,0.8,4.6c0,2.2-0.4,4.1-1.3,5.7c-0.8,1.6-2.1,2.9-3.6,3.8C97.1,44.3,95.2,44.7,92.9,44.7z
		 M92.9,38.8c0.7,0,1.3-0.2,1.8-0.5c0.5-0.3,0.9-0.9,1.2-1.6c0.3-0.7,0.4-1.7,0.4-2.9c0-0.9-0.1-1.7-0.2-2.3
		c-0.2-0.6-0.4-1.1-0.7-1.5c-0.3-0.4-0.6-0.7-1-0.9c-0.4-0.2-0.9-0.3-1.4-0.3c-0.7,0-1.3,0.2-1.8,0.5c-0.5,0.3-0.9,0.9-1.2,1.6
		c-0.3,0.7-0.4,1.7-0.4,2.9c0,0.9,0.1,1.7,0.2,2.3c0.2,0.6,0.4,1.1,0.7,1.5c0.3,0.4,0.6,0.7,1.1,0.9C91.9,38.8,92.4,38.8,92.9,38.8z
		"/>
	<path class="st0" d="M106.7,44.4v-21h7.1l0.3,3.4h0.3c0.5-1.3,1.3-2.2,2.4-2.9c1.1-0.6,2.4-0.9,3.8-0.9c1,0,2,0.2,2.9,0.5
		c0.9,0.3,1.7,0.8,2.3,1.5c0.7,0.7,1.2,1.5,1.6,2.6c0.4,1.1,0.6,2.4,0.6,4v12.8h-7.4V33.1c0-0.9-0.1-1.7-0.3-2.3
		c-0.2-0.6-0.5-1.1-1-1.4c-0.4-0.3-1-0.5-1.8-0.5c-0.8,0-1.4,0.2-1.9,0.5c-0.5,0.4-0.9,0.8-1.1,1.3c-0.3,0.5-0.4,1.1-0.4,1.7v11.9
		H106.7z"/>
	<path class="st0" d="M141.7,44.7c-2.3,0-4.2-0.4-5.8-1.3s-2.8-2.1-3.7-3.7s-1.3-3.5-1.3-5.6c0-2.3,0.4-4.3,1.3-5.9
		c0.9-1.7,2.1-2.9,3.7-3.8c1.6-0.9,3.4-1.3,5.5-1.3c2.5,0,4.6,0.5,6.2,1.6c1.6,1.1,2.8,2.6,3.5,4.5c0.7,1.9,0.9,4.1,0.7,6.5h-13.7
		c0,0.8,0.1,1.4,0.4,2c0.3,0.6,0.7,1,1.3,1.3c0.5,0.3,1.2,0.4,1.9,0.4c0.8,0,1.5-0.1,2-0.4c0.5-0.3,0.8-0.7,1-1.1h6.9
		c-0.2,1.4-0.7,2.6-1.6,3.7c-0.9,1-2,1.9-3.5,2.4S143.6,44.7,141.7,44.7z M138.2,31.8l-0.6-0.6h7.7l-0.7,0.6
		c0.1-0.7-0.1-1.3-0.3-1.8s-0.6-0.9-1.1-1.1s-1.1-0.4-1.7-0.4c-0.7,0-1.3,0.1-1.8,0.4s-0.9,0.7-1.1,1.2
		C138.3,30.6,138.2,31.2,138.2,31.8z"/>
	<path class="st1" d="M163.1,44.4V16.3h12c2.5,0,4.6,0.4,6.2,1.2c1.6,0.8,2.8,1.9,3.6,3.3c0.8,1.4,1.2,3.1,1.2,5
		c0,2.1-0.5,3.8-1.4,5.2s-2.2,2.5-3.9,3.3c-1.7,0.7-3.6,1.1-5.8,1.1h-4.8v-6h4.1c1.4,0,2.3-0.3,2.9-1c0.6-0.7,0.9-1.5,0.9-2.4
		c0-1.2-0.4-2-1.1-2.5c-0.7-0.5-1.6-0.7-2.7-0.7h-4.4l0.8-0.8v22.4H163.1z"/>
	<path class="st1" d="M192.8,21.7c-1.1,0-2-0.3-2.7-0.8c-0.7-0.6-1.1-1.3-1.1-2.4c0-1,0.4-1.8,1.1-2.4c0.7-0.6,1.6-0.8,2.7-0.8
		s2,0.3,2.7,0.8c0.7,0.6,1.1,1.3,1.1,2.4c0,1-0.4,1.8-1.1,2.4C194.7,21.4,193.9,21.7,192.8,21.7z M189.1,44.4v-21h7.4v21H189.1z"/>
	<path class="st1" d="M210.2,44.7c-1.6,0-3.1-0.3-4.4-0.8s-2.4-1.3-3.4-2.2c-0.9-1-1.7-2.1-2.2-3.5c-0.5-1.3-0.8-2.8-0.8-4.5
		c0-1.6,0.3-3.1,0.8-4.5c0.5-1.3,1.2-2.5,2.2-3.4c1-1,2.1-1.7,3.4-2.2c1.3-0.5,2.8-0.8,4.5-0.8c1.9,0,3.6,0.4,5.1,1.1
		c1.5,0.7,2.6,1.7,3.5,2.9c0.8,1.3,1.3,2.7,1.3,4.4H213c-0.1-0.6-0.3-1-0.5-1.4c-0.3-0.4-0.6-0.6-1-0.8c-0.4-0.2-0.8-0.3-1.3-0.3
		c-0.6,0-1.1,0.1-1.5,0.3c-0.4,0.2-0.7,0.6-1,1c-0.3,0.4-0.5,0.9-0.6,1.5c-0.1,0.6-0.2,1.3-0.2,2.1c0,1.2,0.1,2.1,0.4,2.8
		s0.6,1.3,1.1,1.6c0.5,0.3,1,0.5,1.7,0.5c0.6,0,1.1-0.1,1.5-0.3s0.7-0.5,1-0.9c0.2-0.4,0.4-0.8,0.4-1.3h7.1
		c-0.1,1.7-0.5,3.2-1.4,4.4c-0.9,1.3-2.1,2.2-3.5,2.9C213.8,44.4,212.1,44.7,210.2,44.7z"/>
	<path class="st1" d="M231.1,44.4c-2,0-3.5-0.5-4.4-1.4s-1.4-2.4-1.4-4.5v-9.2h-3.5v-5.9h3.5V18l7.4-0.6v6h3.8v5.9h-3.8v7.8
		c0,0.5,0.1,0.9,0.4,1.1c0.3,0.2,0.6,0.3,1.1,0.3h2.3v5.9H231.1z"/>
	<path class="st1" d="M247,44.7c-1.6,0-3-0.3-4.1-0.9c-1.1-0.6-1.9-1.6-2.5-2.8c-0.5-1.2-0.8-2.7-0.8-4.4V23.4h7.4v11.2
		c0,0.9,0.1,1.7,0.3,2.3c0.2,0.6,0.5,1.1,1,1.4s1,0.5,1.8,0.5c0.8,0,1.4-0.2,1.9-0.5c0.5-0.4,0.9-0.8,1.1-1.3
		c0.3-0.5,0.4-1.1,0.4-1.7V23.4h7.4v21h-7.1l-0.3-3.4h-0.3c-0.5,1.3-1.3,2.2-2.4,2.9C249.6,44.4,248.4,44.7,247,44.7z"/>
	<path class="st1" d="M265,44.4v-21h6.7l0.3,3h0.3c0.5-1.3,1.2-2.2,2.1-2.7c1-0.4,2.1-0.7,3.3-0.7c0.2,0,0.4,0,0.6,0
		c0.2,0,0.4,0,0.5,0V30c-0.1,0-0.3,0-0.5,0c-0.2,0-0.5,0-0.8,0c-1.3,0-2.4,0.2-3.1,0.5c-0.7,0.3-1.3,0.8-1.6,1.5
		c-0.3,0.7-0.4,1.5-0.4,2.4v9.9H265z"/>
	<path class="st1" d="M291.2,44.7c-2.3,0-4.2-0.4-5.8-1.3s-2.8-2.1-3.7-3.7s-1.3-3.5-1.3-5.6c0-2.3,0.4-4.3,1.3-5.9
		c0.9-1.7,2.1-2.9,3.7-3.8c1.6-0.9,3.4-1.3,5.5-1.3c2.5,0,4.6,0.5,6.2,1.6c1.6,1.1,2.8,2.6,3.5,4.5c0.7,1.9,0.9,4.1,0.7,6.5h-13.7
		c0,0.8,0.1,1.4,0.4,2c0.3,0.6,0.7,1,1.3,1.3c0.5,0.3,1.2,0.4,1.9,0.4c0.8,0,1.5-0.1,2-0.4c0.5-0.3,0.8-0.7,1-1.1h6.9
		c-0.2,1.4-0.7,2.6-1.6,3.7c-0.9,1-2,1.9-3.5,2.4S293,44.7,291.2,44.7z M287.6,31.8l-0.6-0.6h7.7l-0.7,0.6c0.1-0.7-0.1-1.3-0.3-1.8
		s-0.6-0.9-1.1-1.1s-1.1-0.4-1.7-0.4c-0.7,0-1.3,0.1-1.8,0.4s-0.9,0.7-1.1,1.2C287.7,30.6,287.6,31.2,287.6,31.8z"/>
	<path class="st0" d="M325.7,44.7c-2.2,0-4.1-0.3-5.9-0.9c-1.7-0.6-3.3-1.6-4.5-2.8s-2.2-2.7-2.9-4.5c-0.7-1.8-1-3.9-1-6.2
		c0-2.3,0.3-4.4,1-6.2c0.7-1.8,1.7-3.3,2.9-4.5c1.3-1.2,2.8-2.1,4.5-2.8c1.7-0.6,3.7-0.9,5.9-0.9c2.5,0,4.7,0.4,6.7,1.3
		c1.9,0.9,3.5,2.1,4.7,3.6c1.2,1.5,1.9,3.3,2.1,5.4h-7.9c-0.2-0.7-0.6-1.4-1.1-1.9c-0.5-0.6-1.1-1-1.9-1.3c-0.7-0.3-1.6-0.5-2.5-0.5
		c-1.3,0-2.4,0.3-3.3,0.8c-1,0.5-1.7,1.4-2.2,2.5c-0.5,1.1-0.8,2.6-0.8,4.5c0,1.4,0.2,2.6,0.5,3.6c0.3,1,0.7,1.8,1.3,2.4
		c0.6,0.6,1.2,1.1,2,1.4c0.8,0.3,1.6,0.4,2.6,0.4c0.9,0,1.7-0.2,2.5-0.5c0.8-0.3,1.4-0.7,1.9-1.3c0.5-0.6,0.9-1.2,1.1-1.9h7.9
		c-0.2,2.1-0.9,3.9-2.1,5.4c-1.2,1.6-2.8,2.8-4.7,3.6C330.3,44.3,328.1,44.7,325.7,44.7z"/>
	<path class="st0" d="M349.5,44.7c-1.3,0-2.4-0.2-3.5-0.7c-1-0.5-1.9-1.2-2.7-2.1c-0.7-0.9-1.3-2.1-1.7-3.4
		c-0.4-1.3-0.6-2.9-0.6-4.6c0-2.3,0.4-4.3,1.1-5.9c0.7-1.6,1.7-2.9,2.9-3.7c1.3-0.8,2.7-1.3,4.4-1.3c1,0,1.8,0.1,2.6,0.4
		c0.8,0.3,1.5,0.7,2.1,1.2c0.6,0.5,1,1.1,1.3,1.8h0.4l0.3-3h7v21h-7l-0.3-3h-0.4c-0.4,1-1.1,1.9-2.2,2.5
		C352.1,44.4,350.9,44.7,349.5,44.7z M352.2,38.8c0.8,0,1.5-0.2,2-0.5c0.5-0.3,0.9-0.8,1.1-1.4c0.2-0.6,0.4-1.3,0.4-2.2V33
		c0-0.9-0.1-1.6-0.4-2.2c-0.3-0.6-0.7-1.1-1.2-1.4c-0.5-0.3-1.1-0.5-1.8-0.5c-0.9,0-1.7,0.2-2.2,0.6c-0.6,0.4-1,1-1.2,1.7
		c-0.3,0.7-0.4,1.6-0.4,2.6c0,1,0.1,1.8,0.3,2.6s0.6,1.3,1.2,1.8C350.6,38.6,351.3,38.8,352.2,38.8z"/>
	<path class="st0" d="M367.2,44.4v-21h6.7l0.3,3h0.3c0.5-1.3,1.2-2.2,2.1-2.7c1-0.4,2.1-0.7,3.3-0.7c0.2,0,0.4,0,0.6,0
		c0.2,0,0.4,0,0.5,0V30c-0.1,0-0.3,0-0.5,0c-0.2,0-0.5,0-0.8,0c-1.3,0-2.4,0.2-3.1,0.5c-0.7,0.3-1.3,0.8-1.6,1.5
		c-0.3,0.7-0.4,1.5-0.4,2.4v9.9H367.2z"/>
	<path class="st0" d="M391.3,44.7c-1.3,0-2.4-0.2-3.5-0.7c-1-0.5-1.9-1.2-2.7-2.1c-0.7-0.9-1.3-2.1-1.7-3.4
		c-0.4-1.3-0.6-2.9-0.6-4.6c0-2.3,0.4-4.3,1.1-5.9c0.7-1.6,1.7-2.9,2.9-3.7c1.3-0.8,2.7-1.3,4.4-1.3c1,0,1.8,0.1,2.6,0.4
		c0.8,0.3,1.5,0.7,2.1,1.2c0.6,0.5,1,1.1,1.3,1.8h0.3V16.3h7.4v28.1h-7l-0.3-3h-0.4c-0.4,1-1.1,1.9-2.2,2.5
		C394,44.4,392.7,44.7,391.3,44.7z M394,38.8c0.8,0,1.5-0.2,2-0.5c0.5-0.3,0.9-0.8,1.1-1.4c0.2-0.6,0.4-1.3,0.4-2.2V33
		c0-0.9-0.1-1.6-0.4-2.2c-0.3-0.6-0.7-1.1-1.2-1.4c-0.5-0.3-1.1-0.5-1.8-0.5c-0.9,0-1.7,0.2-2.2,0.6c-0.6,0.4-1,1-1.2,1.7
		c-0.3,0.7-0.4,1.6-0.4,2.6c0,1,0.1,1.8,0.3,2.6s0.6,1.3,1.2,1.8C392.4,38.6,393.1,38.8,394,38.8z"/>
	<path class="st0" d="M418.6,44.4V29.3h-3.1v-5.9h3.1V22c0-1.8,0.6-3.2,1.8-4.2s2.9-1.5,5.1-1.5h4.7V21h-2.7c-0.4,0-0.8,0.1-1.1,0.3
		c-0.3,0.2-0.4,0.5-0.4,1.1v1h3.9v5.9h-3.9v15.1H418.6z"/>
	<path class="st0" d="M442.2,44.7c-1.6,0-3.1-0.2-4.4-0.7c-1.3-0.5-2.4-1.2-3.4-2.1s-1.7-2.1-2.2-3.4c-0.5-1.3-0.8-2.9-0.8-4.6
		c0-2.2,0.4-4.1,1.3-5.7s2.1-2.9,3.7-3.8c1.6-0.9,3.6-1.4,5.8-1.4c1.6,0,3.1,0.2,4.4,0.7s2.4,1.2,3.4,2.1c1,0.9,1.7,2.1,2.2,3.4
		c0.5,1.3,0.8,2.9,0.8,4.6c0,2.2-0.4,4.1-1.3,5.7c-0.8,1.6-2,2.9-3.6,3.8C446.5,44.3,444.6,44.7,442.2,44.7z M442.2,38.8
		c0.7,0,1.3-0.2,1.8-0.5c0.5-0.3,0.9-0.9,1.2-1.6c0.3-0.7,0.4-1.7,0.4-2.9c0-0.9-0.1-1.7-0.2-2.3c-0.2-0.6-0.4-1.1-0.7-1.5
		c-0.3-0.4-0.6-0.7-1-0.9c-0.4-0.2-0.9-0.3-1.4-0.3c-0.7,0-1.3,0.2-1.8,0.5c-0.5,0.3-0.9,0.9-1.2,1.6c-0.3,0.7-0.4,1.7-0.4,2.9
		c0,0.9,0.1,1.7,0.2,2.3s0.4,1.1,0.7,1.5c0.3,0.4,0.6,0.7,1.1,0.9S441.8,38.8,442.2,38.8z"/>
	<path class="st0" d="M456,44.4v-21h6.7l0.3,3h0.3c0.5-1.3,1.2-2.2,2.1-2.7c1-0.4,2.1-0.7,3.3-0.7c0.2,0,0.4,0,0.6,0s0.4,0,0.5,0V30
		c-0.1,0-0.3,0-0.5,0s-0.5,0-0.8,0c-1.3,0-2.4,0.2-3.1,0.5c-0.7,0.3-1.3,0.8-1.6,1.5c-0.3,0.7-0.4,1.5-0.4,2.4v9.9H456z"/>
	<path class="st0" d="M480.7,44.4V16.3h7.8v28.1H480.7z M487,33.5v-6.6h13.6v6.6H487z M499.2,44.4V16.3h7.8v28.1H499.2z"/>
	<path class="st0" d="M521.1,44.7c-1.6,0-3.1-0.2-4.4-0.7c-1.3-0.5-2.4-1.2-3.4-2.1s-1.7-2.1-2.2-3.4c-0.5-1.3-0.8-2.9-0.8-4.6
		c0-2.2,0.4-4.1,1.3-5.7s2.1-2.9,3.7-3.8c1.6-0.9,3.6-1.4,5.8-1.4c1.6,0,3.1,0.2,4.4,0.7s2.4,1.2,3.4,2.1c1,0.9,1.7,2.1,2.2,3.4
		c0.5,1.3,0.8,2.9,0.8,4.6c0,2.2-0.4,4.1-1.3,5.7c-0.8,1.6-2,2.9-3.6,3.8C525.3,44.3,523.4,44.7,521.1,44.7z M521.1,38.8
		c0.7,0,1.3-0.2,1.8-0.5c0.5-0.3,0.9-0.9,1.2-1.6c0.3-0.7,0.4-1.7,0.4-2.9c0-0.9-0.1-1.7-0.2-2.3c-0.2-0.6-0.4-1.1-0.7-1.5
		c-0.3-0.4-0.6-0.7-1-0.9c-0.4-0.2-0.9-0.3-1.4-0.3c-0.7,0-1.3,0.2-1.8,0.5c-0.5,0.3-0.9,0.9-1.2,1.6c-0.3,0.7-0.4,1.7-0.4,2.9
		c0,0.9,0.1,1.7,0.2,2.3s0.4,1.1,0.7,1.5c0.3,0.4,0.6,0.7,1.1,0.9S520.6,38.8,521.1,38.8z"/>
	<path class="st0" d="M534.9,44.4v-21h7.1l0.2,3.4h0.3c0.5-1.3,1.2-2.2,2.3-2.9c1.1-0.6,2.3-0.9,3.6-0.9c1.4,0,2.6,0.3,3.8,1
		c1.2,0.6,2.1,1.8,2.6,3.5h0.3c0.4-1.5,1.3-2.6,2.4-3.3c1.2-0.7,2.6-1.1,4.1-1.1c1.3,0,2.5,0.3,3.5,0.8c1.1,0.6,1.9,1.5,2.5,2.7
		c0.6,1.2,0.9,2.9,0.9,5v12.8h-7.4V33.1c0-0.9-0.1-1.7-0.3-2.3s-0.5-1.1-0.9-1.4c-0.4-0.3-1-0.5-1.6-0.5c-0.7,0-1.3,0.2-1.7,0.5
		c-0.5,0.4-0.8,0.8-1,1.3c-0.2,0.5-0.3,1.1-0.3,1.7v11.9h-7.4V33.1c0-0.9-0.1-1.7-0.3-2.3c-0.2-0.6-0.5-1.1-0.9-1.4
		c-0.4-0.3-1-0.5-1.6-0.5c-0.7,0-1.3,0.2-1.7,0.5c-0.5,0.4-0.8,0.8-1,1.3c-0.2,0.5-0.3,1.1-0.3,1.7v11.9H534.9z"/>
	<path class="st0" d="M582.6,44.7c-2.3,0-4.2-0.4-5.8-1.3c-1.6-0.9-2.8-2.1-3.7-3.7s-1.3-3.5-1.3-5.6c0-2.3,0.4-4.3,1.3-5.9
		c0.9-1.7,2.1-2.9,3.7-3.8s3.4-1.3,5.5-1.3c2.5,0,4.6,0.5,6.2,1.6c1.6,1.1,2.8,2.6,3.5,4.5c0.7,1.9,0.9,4.1,0.7,6.5H579
		c0,0.8,0.1,1.4,0.4,2c0.3,0.6,0.7,1,1.3,1.3c0.5,0.3,1.2,0.4,1.9,0.4c0.8,0,1.5-0.1,2-0.4c0.5-0.3,0.8-0.7,1-1.1h6.9
		c-0.2,1.4-0.7,2.6-1.6,3.7c-0.9,1-2,1.9-3.5,2.4S584.4,44.7,582.6,44.7z M579,31.8l-0.6-0.6h7.7l-0.7,0.6c0.1-0.7-0.1-1.3-0.3-1.8
		c-0.3-0.5-0.6-0.9-1.1-1.1c-0.5-0.3-1.1-0.4-1.7-0.4c-0.7,0-1.3,0.1-1.8,0.4s-0.9,0.7-1.1,1.2C579.1,30.6,579,31.2,579,31.8z"/>
	<path class="st0" d="M602.1,44.4l8.8-28.1H622l8.8,28.1h-8.1l-5.1-18.6l-1-3.7h-0.3l-1,3.7l-5.1,18.6H602.1z M611.1,39.4l1.7-5.9
		h7.2l1.7,5.9H611.1z"/>
	<path class="st0" d="M641.7,44.7c-1.5,0-2.8-0.2-4-0.5c-1.2-0.3-2.2-0.8-3-1.4c-0.8-0.6-1.5-1.4-1.9-2.2c-0.5-0.9-0.7-1.8-0.7-2.8
		h7.2c0.1,0.4,0.2,0.8,0.4,1.1c0.2,0.3,0.5,0.5,0.9,0.6c0.4,0.1,0.8,0.2,1.3,0.2c0.7,0,1.2-0.1,1.6-0.4s0.5-0.6,0.5-1
		c0-0.4-0.1-0.7-0.3-0.8c-0.2-0.2-0.5-0.3-1-0.4c-0.5-0.1-1.1-0.2-1.9-0.3c-1.9-0.3-3.4-0.7-4.6-1.2c-1.2-0.5-2.1-1.2-2.7-2.1
		c-0.6-0.9-0.9-2-0.9-3.4c0-1.4,0.4-2.6,1.2-3.7c0.8-1.1,1.9-1.9,3.3-2.5c1.4-0.6,3.1-0.9,4.9-0.9c1.7,0,3.3,0.3,4.6,0.8
		c1.3,0.6,2.4,1.3,3.1,2.3c0.8,1,1.2,2.1,1.3,3.5h-7.2c0-0.3-0.1-0.6-0.3-0.8c-0.2-0.2-0.4-0.4-0.7-0.5c-0.3-0.1-0.6-0.2-1.1-0.2
		c-0.5,0-1,0.1-1.3,0.3c-0.3,0.2-0.5,0.5-0.5,1c0,0.4,0.1,0.6,0.4,0.8c0.2,0.2,0.7,0.4,1.2,0.5c0.6,0.1,1.3,0.3,2.3,0.4
		c1.8,0.2,3.3,0.6,4.4,1.1c1.1,0.5,1.9,1.2,2.4,2.1c0.5,0.9,0.8,2,0.8,3.4c0,1.5-0.4,2.8-1.2,3.9c-0.8,1.1-1.9,1.9-3.4,2.4
		C645.3,44.5,643.6,44.7,641.7,44.7z"/>
	<path class="st0" d="M663.4,44.7c-1.5,0-2.8-0.2-4-0.5c-1.2-0.3-2.2-0.8-3-1.4c-0.8-0.6-1.5-1.4-1.9-2.2c-0.5-0.9-0.7-1.8-0.7-2.8
		h7.2c0.1,0.4,0.2,0.8,0.4,1.1c0.2,0.3,0.5,0.5,0.9,0.6c0.4,0.1,0.8,0.2,1.3,0.2c0.7,0,1.2-0.1,1.6-0.4s0.5-0.6,0.5-1
		c0-0.4-0.1-0.7-0.3-0.8c-0.2-0.2-0.5-0.3-1-0.4c-0.5-0.1-1.1-0.2-1.9-0.3c-1.9-0.3-3.4-0.7-4.6-1.2c-1.2-0.5-2.1-1.2-2.7-2.1
		c-0.6-0.9-0.9-2-0.9-3.4c0-1.4,0.4-2.6,1.2-3.7c0.8-1.1,1.9-1.9,3.3-2.5c1.4-0.6,3.1-0.9,4.9-0.9c1.7,0,3.3,0.3,4.6,0.8
		c1.3,0.6,2.4,1.3,3.1,2.3c0.8,1,1.2,2.1,1.3,3.5h-7.2c0-0.3-0.1-0.6-0.3-0.8c-0.2-0.2-0.4-0.4-0.7-0.5c-0.3-0.1-0.6-0.2-1.1-0.2
		c-0.5,0-1,0.1-1.3,0.3c-0.3,0.2-0.5,0.5-0.5,1c0,0.4,0.1,0.6,0.4,0.8c0.2,0.2,0.7,0.4,1.2,0.5c0.6,0.1,1.3,0.3,2.3,0.4
		c1.8,0.2,3.3,0.6,4.4,1.1c1.1,0.5,1.9,1.2,2.4,2.1c0.5,0.9,0.8,2,0.8,3.4c0,1.5-0.4,2.8-1.2,3.9c-0.8,1.1-1.9,1.9-3.4,2.4
		C667.1,44.5,665.4,44.7,663.4,44.7z"/>
	<path class="st0" d="M679.9,21.7c-1.1,0-2-0.3-2.7-0.8c-0.7-0.6-1.1-1.3-1.1-2.4c0-1,0.4-1.8,1.1-2.4c0.7-0.6,1.6-0.8,2.7-0.8
		c1.1,0,2,0.3,2.7,0.8c0.7,0.6,1.1,1.3,1.1,2.4c0,1-0.4,1.8-1.1,2.4C681.8,21.4,680.9,21.7,679.9,21.7z M676.2,44.4v-21h7.4v21
		H676.2z"/>
	<path class="st0" d="M696.1,44.7c-1.5,0-2.8-0.2-4-0.5c-1.2-0.3-2.2-0.8-3-1.4c-0.8-0.6-1.5-1.4-1.9-2.2c-0.5-0.9-0.7-1.8-0.7-2.8
		h7.2c0.1,0.4,0.2,0.8,0.4,1.1c0.2,0.3,0.5,0.5,0.9,0.6c0.4,0.1,0.8,0.2,1.3,0.2c0.7,0,1.2-0.1,1.6-0.4s0.5-0.6,0.5-1
		c0-0.4-0.1-0.7-0.3-0.8c-0.2-0.2-0.5-0.3-1-0.4c-0.5-0.1-1.1-0.2-1.9-0.3c-1.9-0.3-3.4-0.7-4.6-1.2c-1.2-0.5-2.1-1.2-2.7-2.1
		c-0.6-0.9-0.9-2-0.9-3.4c0-1.4,0.4-2.6,1.2-3.7c0.8-1.1,1.9-1.9,3.3-2.5c1.4-0.6,3.1-0.9,4.9-0.9c1.7,0,3.3,0.3,4.6,0.8
		c1.3,0.6,2.4,1.3,3.1,2.3c0.8,1,1.2,2.1,1.3,3.5h-7.2c0-0.3-0.1-0.6-0.3-0.8c-0.2-0.2-0.4-0.4-0.7-0.5c-0.3-0.1-0.6-0.2-1.1-0.2
		c-0.5,0-1,0.1-1.3,0.3c-0.3,0.2-0.5,0.5-0.5,1c0,0.4,0.1,0.6,0.4,0.8c0.2,0.2,0.7,0.4,1.2,0.5c0.6,0.1,1.3,0.3,2.3,0.4
		c1.8,0.2,3.3,0.6,4.4,1.1c1.1,0.5,1.9,1.2,2.4,2.1c0.5,0.9,0.8,2,0.8,3.4c0,1.5-0.4,2.8-1.2,3.9c-0.8,1.1-1.9,1.9-3.4,2.4
		C699.7,44.5,698,44.7,696.1,44.7z"/>
	<path class="st0" d="M716.7,44.4c-2,0-3.5-0.5-4.4-1.4c-0.9-0.9-1.4-2.4-1.4-4.5v-9.2h-3.5v-5.9h3.5V18l7.4-0.6v6h3.8v5.9h-3.8v7.8
		c0,0.5,0.1,0.9,0.4,1.1c0.3,0.2,0.6,0.3,1.1,0.3h2.3v5.9H716.7z"/>
	<path class="st0" d="M733,44.7c-1.3,0-2.4-0.2-3.5-0.7c-1-0.5-1.9-1.2-2.7-2.1c-0.7-0.9-1.3-2.1-1.7-3.4c-0.4-1.3-0.6-2.9-0.6-4.6
		c0-2.3,0.4-4.3,1.1-5.9c0.7-1.6,1.7-2.9,3-3.7c1.3-0.8,2.7-1.3,4.4-1.3c1,0,1.8,0.1,2.6,0.4c0.8,0.3,1.5,0.7,2.1,1.2
		c0.6,0.5,1,1.1,1.3,1.8h0.4l0.3-3h7v21h-7l-0.3-3h-0.4c-0.4,1-1.1,1.9-2.2,2.5C735.6,44.4,734.4,44.7,733,44.7z M735.7,38.8
		c0.8,0,1.5-0.2,2-0.5c0.5-0.3,0.9-0.8,1.1-1.4c0.2-0.6,0.4-1.3,0.4-2.2V33c0-0.9-0.1-1.6-0.4-2.2c-0.3-0.6-0.7-1.1-1.2-1.4
		c-0.5-0.3-1.1-0.5-1.8-0.5c-0.9,0-1.7,0.2-2.2,0.6s-1,1-1.2,1.7c-0.3,0.7-0.4,1.6-0.4,2.6c0,1,0.1,1.8,0.3,2.6s0.6,1.3,1.2,1.8
		C734.1,38.6,734.8,38.8,735.7,38.8z"/>
	<path class="st0" d="M750.7,44.4v-21h7.1l0.3,3.4h0.3c0.5-1.3,1.3-2.2,2.4-2.9c1.1-0.6,2.4-0.9,3.8-0.9c1,0,2,0.2,2.9,0.5
		c0.9,0.3,1.7,0.8,2.3,1.5c0.7,0.7,1.2,1.5,1.6,2.6c0.4,1.1,0.6,2.4,0.6,4v12.8h-7.4V33.1c0-0.9-0.1-1.7-0.3-2.3
		c-0.2-0.6-0.5-1.1-1-1.4c-0.4-0.3-1-0.5-1.8-0.5c-0.8,0-1.4,0.2-1.9,0.5c-0.5,0.4-0.9,0.8-1.1,1.3c-0.3,0.5-0.4,1.1-0.4,1.7v11.9
		H750.7z"/>
	<path class="st0" d="M783.7,44.4c-2,0-3.5-0.5-4.4-1.4c-0.9-0.9-1.4-2.4-1.4-4.5v-9.2h-3.5v-5.9h3.5V18l7.4-0.6v6h3.8v5.9h-3.8v7.8
		c0,0.5,0.1,0.9,0.4,1.1c0.3,0.2,0.6,0.3,1.1,0.3h2.3v5.9H783.7z"/>
</g>
</svg>
